<svg xmlns="http://www.w3.org/2000/svg" width="145.216" height="142.995" viewBox="0 0 145.216 142.995">
  <g id="Group_1802" data-name="Group 1802" transform="translate(-97.545 -75.59)">
    <path id="Path_1638" data-name="Path 1638" d="M0,54.442Z" transform="translate(116.617 93.643)" fill="#49bb6a"/>
    <path id="Path_1617" data-name="Path 1617" d="M241.754,178.192l-12.215-7.129a2.03,2.03,0,0,1-.748-2.742,1.043,1.043,0,0,1,.2-.3l9.024-10.868a1.93,1.93,0,0,0-.2-2.792,2.683,2.683,0,0,0-1-.5l-13.91-2.543a1.955,1.955,0,0,1-1.645-2.293.939.939,0,0,1,.1-.4l4.786-13.311a2.019,2.019,0,0,0-1.246-2.592,2.2,2.2,0,0,0-1-.1l-13.959,2.393a2,2,0,0,1-2.343-1.7c0-.1-.05-.2-.05-.3l-.05-14.159a1.98,1.98,0,0,0-2.044-1.994,2.269,2.269,0,0,0-1,.249l-12.314,7.03a2.08,2.08,0,0,1-2.842-.848c-.05-.05-.05-.15-.1-.2l-4.886-13.262a2.005,2.005,0,0,0-2.543-1.246,1.9,1.9,0,0,0-.9.648l-9.173,10.769a2.048,2.048,0,0,1-2.892.2c-.1-.05-.15-.15-.2-.2l-9.173-10.769a1.984,1.984,0,0,0-2.792-.3,2.307,2.307,0,0,0-.648.9l-4.936,13.212a2.012,2.012,0,0,1-2.592,1.2c-.1-.05-.249-.1-.349-.15l-12.264-7.03a2.048,2.048,0,0,0-2.792.8,2.236,2.236,0,0,0-.249.947l-.05,14.159a2.064,2.064,0,0,1-2.094,2.044.632.632,0,0,1-.3-.05l-13.959-2.393a2.029,2.029,0,0,0-2.343,1.645,1.894,1.894,0,0,0,.1,1.047l4.786,13.311a1.988,1.988,0,0,1-1.147,2.592,1.174,1.174,0,0,1-.4.1l-13.91,2.543a2.029,2.029,0,0,0-1.645,2.343,1.685,1.685,0,0,0,.449.947l9.024,10.868a2.02,2.02,0,0,1-.2,2.792,2.11,2.11,0,0,1-.349.249L98.57,178.143a1.985,1.985,0,0,0,0,3.49l12.215,7.129a2.03,2.03,0,0,1,.748,2.742,1.043,1.043,0,0,1-.2.3l-9.074,11.018a1.93,1.93,0,0,0,.2,2.792,2.683,2.683,0,0,0,1,.5l13.91,2.543a1.955,1.955,0,0,1,1.645,2.293.939.939,0,0,1-.1.4l-4.786,13.311a2.019,2.019,0,0,0,1.246,2.592,2.2,2.2,0,0,0,1,.1l13.959-2.393a2,2,0,0,1,2.343,1.7c0,.1.05.2.05.3l.05,14.159a1.98,1.98,0,0,0,2.044,1.994,2.269,2.269,0,0,0,1-.249l12.314-7.03a2.08,2.08,0,0,1,2.842.848c.05.05.05.15.1.2l4.886,13.262a2.005,2.005,0,0,0,2.543,1.246,1.9,1.9,0,0,0,.9-.648l9.173-10.769a2.048,2.048,0,0,1,2.892-.2c.1.05.15.15.2.2l9.173,10.769a1.984,1.984,0,0,0,2.792.3,2.308,2.308,0,0,0,.648-.9l4.886-13.262a2.012,2.012,0,0,1,2.592-1.2c.1.05.249.1.349.15l12.314,7.03a2.048,2.048,0,0,0,2.792-.8,2.236,2.236,0,0,0,.249-.947l.05-14.159a2.064,2.064,0,0,1,2.094-2.044.632.632,0,0,1,.3.05l13.959,2.393A2.029,2.029,0,0,0,226.2,225.7a1.894,1.894,0,0,0-.1-1.047l-4.786-13.311a1.988,1.988,0,0,1,1.147-2.592,1.173,1.173,0,0,1,.4-.1l13.91-2.543a2.029,2.029,0,0,0,1.645-2.343,1.685,1.685,0,0,0-.449-.947l-9.024-10.868a2.02,2.02,0,0,1,.2-2.792,2.11,2.11,0,0,1,.349-.249l12.215-7.129a2.106,2.106,0,0,0,.8-2.842A2.67,2.67,0,0,0,241.754,178.192Zm-71.592,54.592a52.8,52.8,0,1,1,52.8-52.8h0a52.788,52.788,0,0,1-52.8,52.8Z" transform="translate(0 -32.899)" fill="#ffe817"/>
    <path id="Path_1637" data-name="Path 1637" d="M0,45.867Z" transform="translate(124.295 101.221)" fill="#f7bc00"/>
    <g id="Ellipse_169" data-name="Ellipse 169" transform="translate(116.545 92.881)" fill="#63a66e" stroke="#707070" stroke-width="1">
      <circle cx="54" cy="54" r="54" stroke="none"/>
      <circle cx="54" cy="54" r="53.5" fill="none"/>
    </g>
    <g id="Group_1812" data-name="Group 1812" transform="translate(0 20)">
      <text id="Add_Photo" data-name="Add Photo" transform="translate(170.545 152.881)" fill="#f7f7f7" font-size="20" font-family="Active-Regular, Active"><tspan x="-32.95" y="0">Add Photo</tspan></text>
      <g id="Group_1811" data-name="Group 1811">
        <rect id="Rectangle_380" data-name="Rectangle 380" width="38" height="11" transform="translate(151.545 111.881)" fill="#fff"/>
        <rect id="Rectangle_381" data-name="Rectangle 381" width="10" height="37" transform="translate(165.545 97.881)" fill="#fff"/>
      </g>
    </g>
  </g>
</svg>
